<svg width="1920" height="522" viewBox="0 0 1920 522" fill="none" xmlns="http://www.w3.org/2000/svg">
<line x1="1920" y1="195.5" y2="195.5" stroke="white" stroke-width="3"/>
<line x1="1920" y1="152.5" y2="152.5" stroke="white" stroke-width="3"/>
<line x1="1920" y1="110.5" y2="110.5" stroke="white" stroke-width="3"/>
<line x1="1920" y1="67.5" y2="67.5" stroke="white" stroke-width="3"/>
<line x1="1920" y1="24.5" y2="24.5" stroke="white" stroke-width="3"/>
<line x1="1883.5" y1="-5.24981e-08" x2="1883.5" y2="196" stroke="white" stroke-width="3"/>
<line x1="1838.5" y1="-5.24981e-08" x2="1838.5" y2="196" stroke="white" stroke-width="3"/>
<line x1="1793.5" y1="-5.24981e-08" x2="1793.5" y2="196" stroke="white" stroke-width="3"/>
<line x1="1748.5" y1="-5.24981e-08" x2="1748.5" y2="196" stroke="white" stroke-width="3"/>
<line x1="1702.5" y1="-5.24981e-08" x2="1702.5" y2="196" stroke="white" stroke-width="3"/>
<line x1="1657.5" y1="-5.24981e-08" x2="1657.5" y2="196" stroke="white" stroke-width="3"/>
<line x1="1612.5" y1="-5.24981e-08" x2="1612.5" y2="196" stroke="white" stroke-width="3"/>
<line x1="1567.5" y1="-5.24981e-08" x2="1567.5" y2="196" stroke="white" stroke-width="3"/>
<line x1="1522.5" y1="-5.24981e-08" x2="1522.5" y2="196" stroke="white" stroke-width="3"/>
<line x1="1477.5" y1="-5.24981e-08" x2="1477.5" y2="196" stroke="white" stroke-width="3"/>
<line x1="1432.5" y1="-5.24981e-08" x2="1432.5" y2="196" stroke="white" stroke-width="3"/>
<line x1="1387.5" y1="-5.24981e-08" x2="1387.5" y2="196" stroke="white" stroke-width="3"/>
<line x1="1341.5" y1="-5.24981e-08" x2="1341.5" y2="196" stroke="white" stroke-width="3"/>
<line x1="1296.5" y1="-5.24981e-08" x2="1296.5" y2="196" stroke="white" stroke-width="3"/>
<line x1="1251.5" y1="-5.24981e-08" x2="1251.5" y2="196" stroke="white" stroke-width="3"/>
<line x1="1206.5" y1="0.000122018" x2="1206.5" y2="196" stroke="white" stroke-width="3"/>
<line x1="1161.5" y1="0.000122018" x2="1161.5" y2="196" stroke="white" stroke-width="3"/>
<line x1="1116.5" y1="0.000122018" x2="1116.5" y2="196" stroke="white" stroke-width="3"/>
<line x1="1071.5" y1="0.000122018" x2="1071.5" y2="196" stroke="white" stroke-width="3"/>
<line x1="1026.5" y1="0.000122018" x2="1026.5" y2="196" stroke="white" stroke-width="3"/>
<line x1="981.5" y1="0.000122018" x2="981.5" y2="196" stroke="white" stroke-width="3"/>
<line x1="935.5" y1="0.000122018" x2="935.5" y2="196" stroke="white" stroke-width="3"/>
<line x1="890.5" y1="0.000122018" x2="890.5" y2="196" stroke="white" stroke-width="3"/>
<line x1="845.5" y1="0.000122018" x2="845.5" y2="196" stroke="white" stroke-width="3"/>
<line x1="800.5" y1="0.000122018" x2="800.5" y2="196" stroke="white" stroke-width="3"/>
<line x1="755.5" y1="0.000122018" x2="755.5" y2="196" stroke="white" stroke-width="3"/>
<line x1="710.5" y1="0.000122018" x2="710.5" y2="196" stroke="white" stroke-width="3"/>
<line x1="665.5" y1="0.000122018" x2="665.5" y2="196" stroke="white" stroke-width="3"/>
<line x1="620.5" y1="0.000122018" x2="620.5" y2="196" stroke="white" stroke-width="3"/>
<line x1="574.5" y1="0.000122018" x2="574.5" y2="196" stroke="white" stroke-width="3"/>
<line x1="529.5" y1="0.000122018" x2="529.5" y2="196" stroke="white" stroke-width="3"/>
<line x1="484.5" y1="0.000122018" x2="484.5" y2="196" stroke="white" stroke-width="3"/>
<line x1="439.5" y1="0.000122018" x2="439.5" y2="196" stroke="white" stroke-width="3"/>
<line x1="394.5" y1="0.000122018" x2="394.5" y2="196" stroke="white" stroke-width="3"/>
<line x1="349.5" y1="0.000122018" x2="349.5" y2="196" stroke="white" stroke-width="3"/>
<line x1="304.5" y1="0.000122018" x2="304.5" y2="196" stroke="white" stroke-width="3"/>
<line x1="259.5" y1="0.000122018" x2="259.5" y2="196" stroke="white" stroke-width="3"/>
<line x1="214.5" y1="0.000122018" x2="214.5" y2="196" stroke="white" stroke-width="3"/>
<line x1="168.5" y1="0.000122018" x2="168.5" y2="196" stroke="white" stroke-width="3"/>
<line x1="123.5" y1="0.000122018" x2="123.5" y2="196" stroke="white" stroke-width="3"/>
<line x1="78.5" y1="0.000122018" x2="78.5" y2="196" stroke="white" stroke-width="3"/>
<line x1="33.5" y1="0.000122018" x2="33.5" y2="196" stroke="white" stroke-width="3"/>
<line x1="3.93402e-07" y1="326.5" x2="1920" y2="326.5" stroke="white" stroke-width="3"/>
<line x1="3.93402e-07" y1="369.5" x2="1920" y2="369.5" stroke="white" stroke-width="3"/>
<line x1="3.93402e-07" y1="411.5" x2="1920" y2="411.5" stroke="white" stroke-width="3"/>
<line x1="3.93402e-07" y1="454.5" x2="1920" y2="454.5" stroke="white" stroke-width="3"/>
<line x1="3.93402e-07" y1="497.5" x2="1920" y2="497.5" stroke="white" stroke-width="3"/>
<line x1="36.5" y1="522" x2="36.5" y2="326" stroke="white" stroke-width="3"/>
<line x1="81.5" y1="522" x2="81.5" y2="326" stroke="white" stroke-width="3"/>
<line x1="126.5" y1="522" x2="126.5" y2="326" stroke="white" stroke-width="3"/>
<line x1="171.5" y1="522" x2="171.5" y2="326" stroke="white" stroke-width="3"/>
<line x1="217.5" y1="522" x2="217.5" y2="326" stroke="white" stroke-width="3"/>
<line x1="262.5" y1="522" x2="262.5" y2="326" stroke="white" stroke-width="3"/>
<line x1="307.5" y1="522" x2="307.5" y2="326" stroke="white" stroke-width="3"/>
<line x1="352.5" y1="522" x2="352.5" y2="326" stroke="white" stroke-width="3"/>
<line x1="397.5" y1="522" x2="397.5" y2="326" stroke="white" stroke-width="3"/>
<line x1="442.5" y1="522" x2="442.5" y2="326" stroke="white" stroke-width="3"/>
<line x1="487.5" y1="522" x2="487.5" y2="326" stroke="white" stroke-width="3"/>
<line x1="532.5" y1="522" x2="532.5" y2="326" stroke="white" stroke-width="3"/>
<line x1="578.5" y1="522" x2="578.5" y2="326" stroke="white" stroke-width="3"/>
<line x1="623.5" y1="522" x2="623.5" y2="326" stroke="white" stroke-width="3"/>
<line x1="668.5" y1="522" x2="668.5" y2="326" stroke="white" stroke-width="3"/>
<line x1="713.5" y1="522" x2="713.5" y2="326" stroke="white" stroke-width="3"/>
<line x1="758.5" y1="522" x2="758.5" y2="326" stroke="white" stroke-width="3"/>
<line x1="803.5" y1="522" x2="803.5" y2="326" stroke="white" stroke-width="3"/>
<line x1="848.5" y1="522" x2="848.5" y2="326" stroke="white" stroke-width="3"/>
<line x1="893.5" y1="522" x2="893.5" y2="326" stroke="white" stroke-width="3"/>
<line x1="938.5" y1="522" x2="938.5" y2="326" stroke="white" stroke-width="3"/>
<line x1="984.5" y1="522" x2="984.5" y2="326" stroke="white" stroke-width="3"/>
<line x1="1029.5" y1="522" x2="1029.5" y2="326" stroke="white" stroke-width="3"/>
<line x1="1074.5" y1="522" x2="1074.5" y2="326" stroke="white" stroke-width="3"/>
<line x1="1119.5" y1="522" x2="1119.5" y2="326" stroke="white" stroke-width="3"/>
<line x1="1164.5" y1="522" x2="1164.5" y2="326" stroke="white" stroke-width="3"/>
<line x1="1209.5" y1="522" x2="1209.5" y2="326" stroke="white" stroke-width="3"/>
<line x1="1254.5" y1="522" x2="1254.5" y2="326" stroke="white" stroke-width="3"/>
<line x1="1299.5" y1="522" x2="1299.5" y2="326" stroke="white" stroke-width="3"/>
<line x1="1345.5" y1="522" x2="1345.5" y2="326" stroke="white" stroke-width="3"/>
<line x1="1390.5" y1="522" x2="1390.5" y2="326" stroke="white" stroke-width="3"/>
<line x1="1435.5" y1="522" x2="1435.5" y2="326" stroke="white" stroke-width="3"/>
<line x1="1480.5" y1="522" x2="1480.5" y2="326" stroke="white" stroke-width="3"/>
<line x1="1525.5" y1="522" x2="1525.5" y2="326" stroke="white" stroke-width="3"/>
<line x1="1570.5" y1="522" x2="1570.5" y2="326" stroke="white" stroke-width="3"/>
<line x1="1615.5" y1="522" x2="1615.5" y2="326" stroke="white" stroke-width="3"/>
<line x1="1660.5" y1="522" x2="1660.5" y2="326" stroke="white" stroke-width="3"/>
<line x1="1705.5" y1="522" x2="1705.5" y2="326" stroke="white" stroke-width="3"/>
<line x1="1751.5" y1="522" x2="1751.5" y2="326" stroke="white" stroke-width="3"/>
<line x1="1796.5" y1="522" x2="1796.5" y2="326" stroke="white" stroke-width="3"/>
<line x1="1841.5" y1="522" x2="1841.5" y2="326" stroke="white" stroke-width="3"/>
<line x1="1886.5" y1="522" x2="1886.5" y2="326" stroke="white" stroke-width="3"/>
</svg>
