<svg width="124" height="41" viewBox="0 0 124 41" fill="none" xmlns="http://www.w3.org/2000/svg">
<path d="M20.4884 6.47759C24.5446 11.5636 36.0798 23.087 28.8512 30.3156C24.6845 34.4823 20.4319 29.4004 18.2999 26.017C17.3307 24.4788 16.549 22.9058 15.7403 21.2884C15.4627 20.7333 15.1386 19.092 14.861 19.6471C14.4378 20.4934 14.6429 22.1673 14.3335 23.1642C13.9055 24.5433 13.248 25.7642 12.3209 26.8767C10.653 28.8781 6.6626 32.4386 3.78221 30.1984C0.0699635 27.3112 3.01936 19.0692 4.8764 15.7588C6.44879 12.9558 8.52179 10.0032 10.7968 7.72812C11.0674 7.45754 12.8985 5.26058 12.2037 6.84884C11.6329 8.15339 10.9922 9.73891 10.9922 11.1866C10.9922 12.6022 12.236 8.64237 12.9071 7.39595C14.2325 4.93437 10.3634 6.47759 8.88198 6.47759" stroke="#6E61FF" stroke-width="3" stroke-linecap="round"/>
<path d="M44.4215 32.256C43.1842 32.256 42.0962 31.9787 41.1575 31.424C40.2402 30.848 39.5255 30.0587 39.0135 29.056C38.5015 28.0533 38.2455 26.9013 38.2455 25.6V16.128H42.2775V25.28C42.2775 26.4747 42.5655 27.3707 43.1415 27.968C43.7389 28.5653 44.5815 28.864 45.6695 28.864C46.9069 28.864 47.8669 28.4587 48.5495 27.648C49.2322 26.816 49.5735 25.664 49.5735 24.192V16.128H53.6055V32H49.6375V29.92H49.0615C48.8055 30.4533 48.3255 30.976 47.6215 31.488C46.9175 32 45.8509 32.256 44.4215 32.256ZM67.6283 32.448C66.199 32.448 65.1003 32.2027 64.3323 31.712C63.5643 31.2213 62.999 30.6773 62.6363 30.08H62.0603V32H58.0923V9.6H62.1243V17.952H62.7003C62.935 17.568 63.2443 17.2053 63.6283 16.864C64.0336 16.5227 64.5563 16.2453 65.1963 16.032C65.8576 15.7973 66.6683 15.68 67.6283 15.68C68.9083 15.68 70.0923 16 71.1803 16.64C72.2683 17.2587 73.143 18.176 73.8043 19.392C74.4656 20.608 74.7963 22.08 74.7963 23.808V24.32C74.7963 26.048 74.4656 27.52 73.8043 28.736C73.143 29.952 72.2683 30.88 71.1803 31.52C70.0923 32.1387 68.9083 32.448 67.6283 32.448ZM66.4123 28.928C67.6496 28.928 68.6843 28.5333 69.5163 27.744C70.3483 26.9333 70.7643 25.76 70.7643 24.224V23.904C70.7643 22.368 70.3483 21.2053 69.5163 20.416C68.7056 19.6053 67.671 19.2 66.4123 19.2C65.175 19.2 64.1403 19.6053 63.3083 20.416C62.4763 21.2053 62.0603 22.368 62.0603 23.904V24.224C62.0603 25.76 62.4763 26.9333 63.3083 27.744C64.1403 28.5333 65.175 28.928 66.4123 28.928ZM88.0345 32.448C86.6052 32.448 85.5065 32.2027 84.7385 31.712C83.9705 31.2213 83.4052 30.6773 83.0425 30.08H82.4665V32H78.4985V9.6H82.5305V17.952H83.1065C83.3412 17.568 83.6505 17.2053 84.0345 16.864C84.4399 16.5227 84.9625 16.2453 85.6025 16.032C86.2639 15.7973 87.0745 15.68 88.0345 15.68C89.3145 15.68 90.4985 16 91.5865 16.64C92.6745 17.2587 93.5492 18.176 94.2105 19.392C94.8719 20.608 95.2025 22.08 95.2025 23.808V24.32C95.2025 26.048 94.8719 27.52 94.2105 28.736C93.5492 29.952 92.6745 30.88 91.5865 31.52C90.4985 32.1387 89.3145 32.448 88.0345 32.448ZM86.8185 28.928C88.0559 28.928 89.0905 28.5333 89.9225 27.744C90.7545 26.9333 91.1705 25.76 91.1705 24.224V23.904C91.1705 22.368 90.7545 21.2053 89.9225 20.416C89.1119 19.6053 88.0772 19.2 86.8185 19.2C85.5812 19.2 84.5465 19.6053 83.7145 20.416C82.8825 21.2053 82.4665 22.368 82.4665 23.904V24.224C82.4665 25.76 82.8825 26.9333 83.7145 27.744C84.5465 28.5333 85.5812 28.928 86.8185 28.928ZM98.9048 32V9.6H102.937V32H98.9048ZM114.637 32.448C113.058 32.448 111.661 32.1173 110.445 31.456C109.25 30.7733 108.311 29.824 107.629 28.608C106.967 27.3707 106.637 25.92 106.637 24.256V23.872C106.637 22.208 106.967 20.768 107.629 19.552C108.29 18.3147 109.218 17.3653 110.413 16.704C111.607 16.0213 112.994 15.68 114.573 15.68C116.13 15.68 117.485 16.032 118.637 16.736C119.789 17.4187 120.685 18.3787 121.325 19.616C121.965 20.832 122.285 22.2507 122.285 23.872V25.248H110.733C110.775 26.336 111.181 27.2213 111.949 27.904C112.717 28.5867 113.655 28.928 114.765 28.928C115.895 28.928 116.727 28.6827 117.261 28.192C117.794 27.7013 118.199 27.1573 118.477 26.56L121.773 28.288C121.474 28.8427 121.037 29.4507 120.461 30.112C119.906 30.752 119.159 31.3067 118.221 31.776C117.282 32.224 116.087 32.448 114.637 32.448ZM110.765 22.24H118.189C118.103 21.3227 117.73 20.5867 117.069 20.032C116.429 19.4773 115.586 19.2 114.541 19.2C113.453 19.2 112.589 19.4773 111.949 20.032C111.309 20.5867 110.914 21.3227 110.765 22.24Z" fill="#031926"/>
</svg>
