<svg width="1920" height="164" viewBox="0 0 1920 164" fill="none" xmlns="http://www.w3.org/2000/svg">
<line x1="1.31134e-07" y1="1.5" x2="1920" y2="1.50017" stroke="white" stroke-width="3"/>
<line x1="1.31134e-07" y1="44.5" x2="1920" y2="44.5002" stroke="white" stroke-width="3"/>
<line x1="1.31134e-07" y1="86.5" x2="1920" y2="86.5002" stroke="white" stroke-width="3"/>
<line x1="1.31134e-07" y1="129.5" x2="1920" y2="129.5" stroke="white" stroke-width="3"/>
<line x1="36.5" y1="197" x2="36.5" y2="1" stroke="white" stroke-width="3"/>
<line x1="81.5" y1="197" x2="81.5" y2="1" stroke="white" stroke-width="3"/>
<line x1="126.5" y1="197" x2="126.5" y2="1" stroke="white" stroke-width="3"/>
<line x1="171.5" y1="197" x2="171.5" y2="1" stroke="white" stroke-width="3"/>
<line x1="217.5" y1="197" x2="217.5" y2="1" stroke="white" stroke-width="3"/>
<line x1="262.5" y1="197" x2="262.5" y2="1" stroke="white" stroke-width="3"/>
<line x1="307.5" y1="197" x2="307.5" y2="1" stroke="white" stroke-width="3"/>
<line x1="352.5" y1="197" x2="352.5" y2="1" stroke="white" stroke-width="3"/>
<line x1="397.5" y1="197" x2="397.5" y2="1" stroke="white" stroke-width="3"/>
<line x1="442.5" y1="197" x2="442.5" y2="1" stroke="white" stroke-width="3"/>
<line x1="487.5" y1="197" x2="487.5" y2="1" stroke="white" stroke-width="3"/>
<line x1="532.5" y1="197" x2="532.5" y2="1" stroke="white" stroke-width="3"/>
<line x1="578.5" y1="197" x2="578.5" y2="1" stroke="white" stroke-width="3"/>
<line x1="623.5" y1="197" x2="623.5" y2="1" stroke="white" stroke-width="3"/>
<line x1="668.5" y1="197" x2="668.5" y2="1" stroke="white" stroke-width="3"/>
<line x1="713.5" y1="197" x2="713.5" y2="1" stroke="white" stroke-width="3"/>
<line x1="758.5" y1="197" x2="758.5" y2="1" stroke="white" stroke-width="3"/>
<line x1="803.5" y1="197" x2="803.5" y2="1" stroke="white" stroke-width="3"/>
<line x1="848.5" y1="197" x2="848.5" y2="1" stroke="white" stroke-width="3"/>
<line x1="893.5" y1="197" x2="893.5" y2="1" stroke="white" stroke-width="3"/>
<line x1="938.5" y1="197" x2="938.5" y2="1" stroke="white" stroke-width="3"/>
<line x1="984.5" y1="197" x2="984.5" y2="1" stroke="white" stroke-width="3"/>
<line x1="1029.5" y1="197" x2="1029.5" y2="1" stroke="white" stroke-width="3"/>
<line x1="1074.5" y1="197" x2="1074.5" y2="1" stroke="white" stroke-width="3"/>
<line x1="1119.5" y1="197" x2="1119.5" y2="1" stroke="white" stroke-width="3"/>
<line x1="1164.5" y1="197" x2="1164.5" y2="1" stroke="white" stroke-width="3"/>
<line x1="1209.5" y1="197" x2="1209.5" y2="1" stroke="white" stroke-width="3"/>
<line x1="1254.5" y1="197" x2="1254.5" y2="1" stroke="white" stroke-width="3"/>
<line x1="1299.5" y1="197" x2="1299.5" y2="1" stroke="white" stroke-width="3"/>
<line x1="1345.5" y1="197" x2="1345.5" y2="1" stroke="white" stroke-width="3"/>
<line x1="1390.5" y1="197" x2="1390.5" y2="1" stroke="white" stroke-width="3"/>
<line x1="1435.5" y1="197" x2="1435.5" y2="1" stroke="white" stroke-width="3"/>
<line x1="1480.5" y1="197" x2="1480.5" y2="1" stroke="white" stroke-width="3"/>
<line x1="1525.5" y1="197" x2="1525.5" y2="1" stroke="white" stroke-width="3"/>
<line x1="1570.5" y1="197" x2="1570.5" y2="1" stroke="white" stroke-width="3"/>
<line x1="1615.5" y1="197" x2="1615.5" y2="1" stroke="white" stroke-width="3"/>
<line x1="1660.5" y1="197" x2="1660.5" y2="1" stroke="white" stroke-width="3"/>
<line x1="1705.5" y1="197" x2="1705.5" y2="1" stroke="white" stroke-width="3"/>
<line x1="1751.5" y1="197" x2="1751.5" y2="1" stroke="white" stroke-width="3"/>
<line x1="1796.5" y1="197" x2="1796.5" y2="1" stroke="white" stroke-width="3"/>
<line x1="1841.5" y1="197" x2="1841.5" y2="1" stroke="white" stroke-width="3"/>
<line x1="1886.5" y1="197" x2="1886.5" y2="1" stroke="white" stroke-width="3"/>
</svg>
