<svg width="33" height="30" viewBox="0 0 33 30" fill="none" xmlns="http://www.w3.org/2000/svg">
<path d="M20.4884 2.47759C24.5446 7.56356 36.0798 19.087 28.8512 26.3156C24.6845 30.4823 20.4319 25.4004 18.2999 22.017C17.3307 20.4788 16.549 18.9058 15.7403 17.2884C15.4627 16.7333 15.1386 15.092 14.861 15.6471C14.4378 16.4934 14.6429 18.1673 14.3335 19.1642C13.9055 20.5433 13.248 21.7642 12.3209 22.8767C10.653 24.8781 6.6626 28.4386 3.78221 26.1984C0.0699635 23.3112 3.01936 15.0692 4.8764 11.7588C6.44879 8.95583 8.52179 6.00316 10.7968 3.72812C11.0674 3.45754 12.8985 1.26058 12.2037 2.84884C11.6329 4.15339 10.9922 5.73891 10.9922 7.18658C10.9922 8.60219 12.236 4.64237 12.9071 3.39595C14.2325 0.934371 10.3634 2.47759 8.88198 2.47759" stroke="#6E61FF" stroke-width="3" stroke-linecap="round"/>
</svg>
